<?xml version="1.0" encoding="utf-8"?>
<svg version="1.1" id="Слой_1" xmlns="http://www.w3.org/2000/svg" xmlns:xlink="http://www.w3.org/1999/xlink" x="0px" y="0px"
	 viewBox="0 0 612 612" style="enable-background:new 0 0 612 612;" xml:space="preserve">
<style type="text/css">
	.st0{fill:#EFEEEE;}
	.st1{fill:#212121;}
	.st2{fill:none;stroke:#FFFFFF;stroke-width:13;stroke-miterlimit:10;}
	.st3{fill:none;stroke:#FFFFFF;stroke-width:13;stroke-miterlimit:10;stroke-dasharray:65,65;}
	.st4{fill:#CECAC9;}
	.st5{fill:#E9484D;}
	.st6{fill:#9FDAEC;}
	.st7{fill:#1ECAEC;}
	.st8{fill:#FC9B59;}
	.st9{fill:#EE6E09;}
	.st10{fill:#1B83BD;}
	.st11{fill:#1051AA;}
	.st12{fill:#D13B3C;}
	.st13{fill:#212121;}
	.st14{fill:#5C5C5E;}
	.st15{fill:#939393;}

	#colorWay{animation: colorWay 1s linear infinite;}
	@keyframes colorWay {
      0%   { transform: translate(0,0);}
      100% { transform: translate(-500px,0);}
	}
	#Houses_1_{animation: Houses 6s linear infinite;}
	@keyframes Houses {
      0%   { transform: translate(0,0);}
      100% { transform: translate(-2000px,0);}
	}
	#body{animation: body 1s linear infinite;}
	@keyframes body {
      0%   { transform: translate(0,0);}
      50%   { transform: translate(0,3px);}
      100% { transform: translate(0,0);}

</style>
<rect id="way" y="372.1" class="st0" width="612" height="239.9"/>
<g id="colorWay">
		<line class="st2" x1="0" y1="467.2" x2="32.5" y2="467.2"/>
		<line class="st3" x1="97.5" y1="467.2" x2="1105" y2="467.2"/>
		<line class="st2" x1="1137.5" y1="467.2" x2="1170" y2="467.2"/>
</g>
<g id="colorWay_1_">
		<line class="st2" x1="1036" y1="467.2" x2="1068.5" y2="467.2"/>
		<line class="st3" x1="1133.5" y1="467.2" x2="2141" y2="467.2"/>
		<line class="st2" x1="2173.5" y1="467.2" x2="2206" y2="467.2"/>
</g>
<g id="Car">
	<g id="body">
		<path class="st4" d="M324.8,370.7H147.2c-15.9,0-29.1-13.1-29.1-29.1v-132c0-15.9,13.1-29.1,29.1-29.1h177.6
			c15.9,0,29.1,13.1,29.1,29.1v148.1C353.8,373.5,340.9,370.7,324.8,370.7z"/>
		<path class="st5" d="M353.4,218.7c0.2-8.9,2-9.8,58.6-9.8c67.8,0,61.2,22.3,61.2,22.3l7.8,57.5h18.1c0,0,15.2,2.5,14.5,15.8
			c-0.6,13.3,0,49.7,0,49.7h-37l-105.4,36.4H117.5c0,0-11.6-3-9.1-20c2.5-17,12.2-16.4,12.2-16.4l233.2,0.6L353.4,218.7z"/>
		<path class="st4" d="M465.7,354.3H528c0,0,7.7,1.2,6.4,13s0.2,16.7,0.2,16.7s1.1,7.5-10.6,6.7c-11.7-0.8-46.4-3-46.4-3
			L465.7,354.3z"/>
		<path class="st6" d="M371.3,286.5h90.4l-5.6-50.9c0,0,1.2-12.2-17.5-12.7c-18.7-0.6-64.2,0-64.2,0s-6.7,0.6-6.1,12.2
			C369,246.7,371.3,286.5,371.3,286.5z"/>
		<g>
			<path class="st7" d="M261.4,196.2c4.4,0.8,7.3,3.4,10,6.6c4.8,5.9,8.3,12.7,10.9,19.7c3.1,8.1,6.6,15.9,9.1,24.1
				c-1.2,0.5-1.2-1.1-2.2-1.2c-8.6-7-19.1-8.3-29.7-9.4c-7-1.4-14.4-1.6-21.4-2c-15.9-0.8-31.7-0.6-47.6-0.3
				c-0.2-0.5-0.3-0.9-0.5-1.2l0.2-0.2c5.2-1.2,9.7-3.9,14.5-5.8c5.6-2.2,5.6-2.3,4.5-8c12.3-8.4,24.4-17.2,38.4-23
				C253.9,193.7,260.1,195.9,261.4,196.2z"/>
			<path class="st8" d="M273.7,297.1c-10,6.9-20.3,13.7-31.6,18.6c-0.5,0.3-1.6,0.5-0.5,1.2c-4.4,0-8.7,0-13.1,0
				c0.6-1.1-0.5-1.1-0.9-1.2c-4.8-1.6-8.3-4.8-11.2-8.9c-4.8-6.6-8-13.7-10.9-21.2c-2.8-7.3-5.9-14.4-8.3-21.7
				c8.6,9.2,20.5,10.5,32.2,11.7c6.4,1.2,13,1.6,19.5,1.9c16.2,0.9,32.6,0.9,48.9,0.3c1.9-0.2,1.9,0,1.4,1.1c-0.5,0-1.1,0.3-1.2,0.9
				l0,0c-1.2-0.3-2.2,0.5-3,0.8c-4.7,2-9.1,3.9-13.7,5.8C273.7,289.1,273.7,289.1,273.7,297.1z"/>
			<path class="st9" d="M229.5,275.4c-11.7-1.2-23.4-2.5-32.2-11.7c-1.7-8.7,2.3-15.2,8.7-20.6c7.3-6.6,7.3-6.6,11.1,2.2
				C221.4,255.4,225.7,265.1,229.5,275.4z"/>
			<path class="st10" d="M289.3,245.6c0.9,0.2,1.1,1.4,2.2,1.2c1.6,6.2,0.6,11.7-3.7,16.7c-6.1-1.4-12-3.7-18.4-3.9
				c-3-6.1-5.3-12.3-7.7-18.6c2-0.2,3.9,0.2,5.8,0.6c5.8,1.4,11.7,3,17.7,4.1C286.3,246,288.1,247.6,289.3,245.6z"/>
			<path class="st7" d="M269.3,259.6c6.4,0.2,12.3,2.3,18.4,3.9c-2.8,3.6-6.4,6.6-10,9.2c-1.6,1.2-2.3,1.2-3.1-0.8
				C272.8,267.7,271,263.7,269.3,259.6z"/>
			<path class="st11" d="M289.3,245.6c-1.2,2-3,0.5-4.4,0.3c-5.9-1.2-11.7-2.7-17.7-4.1c-1.9-0.5-3.9-0.8-5.8-0.6
				c-0.9-1.6-1.6-3.1-1.9-4.8C270.3,237.1,280.7,238.5,289.3,245.6z"/>
			<path class="st9" d="M273.7,297.1c0-8,0-8,7.5-10.9c4.7-1.9,9.1-3.9,13.7-5.8c0.9-0.5,2-1.1,3-0.8
				C290.2,285.9,282.1,291.8,273.7,297.1z"/>
			<path class="st10" d="M209.3,218.5c1.1,5.6,1.1,5.6-4.5,8c-4.8,2-9.4,4.7-14.5,5.8C196.4,227.4,202.8,222.8,209.3,218.5z"/>
			<path class="st10" d="M190.1,232.6c0.2,0.5,0.3,0.9,0.5,1.2c-0.5,0.2-1.2,0.5-1.6-0.3C188.9,233.1,189.7,232.8,190.1,232.6z"/>
			<path class="st9" d="M298.1,279.6c0.2-0.5,0.5-0.8,1.2-0.9C298.8,279,298.5,279.3,298.1,279.6z"/>
		</g>
		<path class="st12" d="M288.1,408H259c0-23.4-19.1-42.5-42.5-42.5S174,384.6,174,408H145c0-39.5,32.2-71.5,71.5-71.5
			S288.1,368.5,288.1,408z"/>
		<g>
			<path class="st12" d="M505.5,408h-29.1c0-23.4-19.1-42.5-42.5-42.5c-23.4,0-42.5,19.1-42.5,42.5h-29.1
				c0-39.5,32.2-71.5,71.5-71.5C473.5,336.5,505.5,368.5,505.5,408z"/>
		</g>
	</g>
	<g id="bol">
		<circle class="st13" cx="434" cy="404.9" r="46.9"/>
		<circle class="st14" cx="434" cy="404.9" r="27.6"/>
		<circle class="st15" cx="434" cy="404.9" r="10.6"/>
		<g id="bol1">
			<circle class="st13" cx="216.5" cy="404.9" r="46.9"/>
			<circle class="st14" cx="216.5" cy="404.9" r="27.6"/>
			<circle class="st15" cx="216.5" cy="404.9" r="10.6"/>
		</g>
	</g>
</g>
</svg>
